<?xml version="1.0" encoding="utf-8"?>
<!-- Generator: Adobe Illustrator 12.0.1, SVG Export Plug-In . SVG Version: 6.00 Build 51448)  -->
<!DOCTYPE svg PUBLIC "-//W3C//DTD SVG 1.0//EN" "http://www.w3.org/TR/2001/REC-SVG-20010904/DTD/svg10.dtd" [
	<!ENTITY ns_svg "http://www.w3.org/2000/svg">
	<!ENTITY ns_xlink "http://www.w3.org/1999/xlink">
]>
<svg  version="1.0" id="レイヤー_1" xmlns="&ns_svg;" xmlns:xlink="&ns_xlink;" width="503.65" height="463.841"
	 viewBox="0 0 503.65 463.841" overflow="visible" enable-background="new 0 0 503.65 463.841" xml:space="preserve">
<g>
	<line fill="none" stroke="#000000" stroke-width="2" x1="0" y1="389.509" x2="465.301" y2="389.509"/>
	<line fill="none" stroke="#000000" stroke-width="2" x1="232.65" y1="389.509" x2="232.65" y2="407.509"/>
	<line fill="none" stroke="#000000" stroke-width="2" x1="412.65" y1="389.509" x2="412.65" y2="407.509"/>
	<line fill="none" stroke="#000000" stroke-width="2" x1="52.65" y1="389.509" x2="52.65" y2="407.509"/>
	<line fill="none" stroke="#000000" stroke-width="6" x1="52.65" y1="389.509" x2="52.65" y2="209.509"/>
	<line fill="none" stroke="#000000" stroke-width="6" x1="412.65" y1="389.509" x2="412.65" y2="209.509"/>
	<line fill="none" stroke="#000000" stroke-width="2" x1="452.65" y1="209.509" x2="452.65" y2="29.509"/>
	<line fill="none" stroke="#000000" stroke-width="2" x1="434.65" y1="29.509" x2="470.65" y2="29.509"/>
	<line fill="none" stroke="#000000" stroke-width="2" x1="434.65" y1="209.509" x2="470.65" y2="209.509"/>
	<line fill="none" stroke="#000000" stroke-width="6" x1="412.65" y1="389.509" x2="412.65" y2="209.509"/>
	<path fill="none" stroke="#000000" stroke-width="6" d="M52.65,209.509c0-99.492,80.508-180,180-180"/>
	<path fill="none" stroke="#000000" stroke-width="6" d="M232.65,29.509c99.492,0,180,80.508,180,180"/>
	<text transform="matrix(1 0 0 1 32.1309 432.4004)" font-family="'SourceHanSans-Normal-90ms-RKSJ-H'" font-size="30">0.0</text>
	<text transform="matrix(1 0 0 1 212.1309 432.4004)" font-family="'SourceHanSans-Normal-90ms-RKSJ-H'" font-size="30">1.0</text>
	<text transform="matrix(1 0 0 1 392.1309 432.4004)" font-family="'SourceHanSans-Normal-90ms-RKSJ-H'" font-size="30">2.0</text>
	<g>
		<line fill="none" stroke="#000000" stroke-width="2" x1="478.65" y1="209.509" x2="503.65" y2="209.509"/>
		<text transform="matrix(1 0 0 1 482.249 206.3999)" font-family="'SourceHanSans-Normal-90ms-RKSJ-H'" font-size="30">1</text>
		<text transform="matrix(1 0 0 1 482.249 234.7334)" font-family="'SourceHanSans-Normal-90ms-RKSJ-H'" font-size="30">4</text>
	</g>
	<g>
		<line fill="none" stroke="#000000" stroke-width="2" x1="478.65" y1="29.509" x2="503.65" y2="29.509"/>
		<text transform="matrix(1 0 0 1 482.249 26.3999)" font-family="'SourceHanSans-Normal-90ms-RKSJ-H'" font-size="30">1</text>
		<text transform="matrix(1 0 0 1 482.249 54.7334)" font-family="'SourceHanSans-Normal-90ms-RKSJ-H'" font-size="30">2</text>
	</g>
</g>
</svg>
