<?xml version="1.0" encoding="utf-8"?>
<!-- Generator: Adobe Illustrator 12.0.1, SVG Export Plug-In . SVG Version: 6.00 Build 51448)  -->
<!DOCTYPE svg PUBLIC "-//W3C//DTD SVG 1.0//EN" "http://www.w3.org/TR/2001/REC-SVG-20010904/DTD/svg10.dtd" [
	<!ENTITY ns_svg "http://www.w3.org/2000/svg">
	<!ENTITY ns_xlink "http://www.w3.org/1999/xlink">
]>
<svg  version="1.0" id="レイヤー_1" xmlns="&ns_svg;" xmlns:xlink="&ns_xlink;" width="134.307" height="123.69"
	 viewBox="0 0 134.307 123.69" overflow="visible" enable-background="new 0 0 134.307 123.69" xml:space="preserve">
<line fill="none" stroke="#000000" stroke-width="0.5" x1="0" y1="103.869" x2="124.08" y2="103.869"/>
<line fill="none" stroke="#000000" stroke-width="0.5" x1="62.04" y1="103.869" x2="62.04" y2="108.668"/>
<line fill="none" stroke="#000000" stroke-width="0.5" x1="110.04" y1="103.869" x2="110.04" y2="108.668"/>
<line fill="none" stroke="#000000" stroke-width="0.5" x1="14.04" y1="103.869" x2="14.04" y2="108.668"/>
<line fill="none" stroke="#000000" stroke-width="1.5" x1="14.04" y1="103.869" x2="14.04" y2="55.869"/>
<line fill="none" stroke="#000000" stroke-width="1.5" x1="110.04" y1="103.869" x2="110.04" y2="55.869"/>
<line fill="none" stroke="#000000" stroke-width="0.5" x1="120.707" y1="55.869" x2="120.707" y2="7.869"/>
<line fill="none" stroke="#000000" stroke-width="0.5" x1="115.906" y1="7.869" x2="125.507" y2="7.869"/>
<line fill="none" stroke="#000000" stroke-width="0.5" x1="115.906" y1="55.869" x2="125.507" y2="55.869"/>
<path fill="none" stroke="#000000" stroke-width="1.5" d="M14.04,55.869c0-26.531,21.469-48,48-48"/>
<path fill="none" stroke="#000000" stroke-width="1.5" d="M62.04,7.869c26.531,0,48,21.469,48,48"/>
<text transform="matrix(1 0 0 1 8.5679 115.3062)" font-family="'SourceHanSans-Normal-90ms-RKSJ-H'" font-size="8">0.0</text>
<text transform="matrix(1 0 0 1 56.5679 115.3062)" font-family="'SourceHanSans-Normal-90ms-RKSJ-H'" font-size="8">1.0</text>
<text transform="matrix(1 0 0 1 104.5684 115.3062)" font-family="'SourceHanSans-Normal-90ms-RKSJ-H'" font-size="8">2.0</text>
<g>
	<line fill="none" stroke="#000000" stroke-width="0.5" x1="127.64" y1="55.869" x2="134.307" y2="55.869"/>
	<text transform="matrix(1 0 0 1 128.5996 55.0396)" font-family="'SourceHanSans-Normal-90ms-RKSJ-H'" font-size="8">1</text>
	<text transform="matrix(1 0 0 1 128.5996 62.5952)" font-family="'SourceHanSans-Normal-90ms-RKSJ-H'" font-size="8">4</text>
</g>
<g>
	<line fill="none" stroke="#000000" stroke-width="0.5" x1="127.64" y1="7.869" x2="134.307" y2="7.869"/>
	<text transform="matrix(1 0 0 1 128.5996 7.04)" font-family="'SourceHanSans-Normal-90ms-RKSJ-H'" font-size="8">1</text>
	<text transform="matrix(1 0 0 1 128.5996 14.5957)" font-family="'SourceHanSans-Normal-90ms-RKSJ-H'" font-size="8">2</text>
</g>
</svg>
