<?xml version="1.0" encoding="utf-8"?>
<!-- Generator: Adobe Illustrator 12.0.1, SVG Export Plug-In . SVG Version: 6.00 Build 51448)  -->
<!DOCTYPE svg PUBLIC "-//W3C//DTD SVG 1.0//EN" "http://www.w3.org/TR/2001/REC-SVG-20010904/DTD/svg10.dtd" [
	<!ENTITY ns_svg "http://www.w3.org/2000/svg">
	<!ENTITY ns_xlink "http://www.w3.org/1999/xlink">
]>
<svg  version="1.0" id="レイヤー_1" xmlns="&ns_svg;" xmlns:xlink="&ns_xlink;" width="302.5" height="59.5"
	 viewBox="0 0 302.5 59.5" overflow="visible" enable-background="new 0 0 302.5 59.5" xml:space="preserve">
<rect x="0.25" y="0.25" fill="none" stroke="#000000" stroke-width="0.5" width="65" height="28"/>
<g>
	<g>
		<line fill="none" stroke="#000000" stroke-width="0.5" x1="65.25" y1="14.875" x2="71.25" y2="14.875"/>
		<path d="M70.867,14.875l-0.821-1.351l0.046-0.031l2.203,0.875c0.768,0.169,1.535,0.338,2.303,0.507
			c-0.768,0.169-1.535,0.338-2.303,0.507l-2.203,0.875l-0.046-0.023L70.867,14.875z"/>
	</g>
</g>
<text transform="matrix(1 0 0 1 0.75 9.8745)"><tspan x="0" y="0" font-family="'SourceHanSans-Normal-90ms-RKSJ-H'" font-size="8">ランダムアクセス </tspan><tspan x="8" y="14" font-family="'SourceHanSans-Normal-90ms-RKSJ-H'" font-size="8">イテレーター</tspan></text>
<rect x="74.25" y="0.25" fill="none" stroke="#000000" stroke-width="0.5" width="65" height="28"/>
<g>
	<g>
		<line fill="none" stroke="#000000" stroke-width="0.5" x1="139.25" y1="14.875" x2="145.25" y2="14.875"/>
		<path d="M144.867,14.875l-0.821-1.351l0.046-0.031l2.203,0.875c0.768,0.169,1.535,0.338,2.303,0.507
			c-0.768,0.169-1.535,0.338-2.303,0.507l-2.203,0.875l-0.046-0.023L144.867,14.875z"/>
	</g>
</g>
<text transform="matrix(1 0 0 1 94.75 9.8745)"><tspan x="0" y="0" font-family="'SourceHanSans-Normal-90ms-RKSJ-H'" font-size="8">双方向 </tspan><tspan x="-12" y="14" font-family="'SourceHanSans-Normal-90ms-RKSJ-H'" font-size="8">イテレーター</tspan></text>
<rect x="148.25" y="0.25" fill="none" stroke="#000000" stroke-width="0.5" width="65" height="28"/>
<g>
	<g>
		<line fill="none" stroke="#000000" stroke-width="0.5" x1="213.25" y1="14.875" x2="219.25" y2="14.875"/>
		<path d="M218.867,14.875l-0.821-1.351l0.046-0.031l2.203,0.875c0.768,0.169,1.535,0.338,2.303,0.507
			c-0.768,0.169-1.535,0.338-2.303,0.507l-2.203,0.875l-0.046-0.023L218.867,14.875z"/>
	</g>
</g>
<text transform="matrix(1 0 0 1 148.75 16.8745)" font-family="'SourceHanSans-Normal-90ms-RKSJ-H'" font-size="8">前方イテレーター</text>
<rect x="222.25" y="0.25" fill="none" stroke="#000000" stroke-width="0.5" width="65" height="28"/>
<text transform="matrix(1 0 0 1 222.75 16.8745)" font-family="'SourceHanSans-Normal-90ms-RKSJ-H'" font-size="8">入力イテレーター</text>
<rect x="237.25" y="31.25" fill="none" stroke="#000000" stroke-width="0.5" width="65" height="28"/>
<text transform="matrix(1 0 0 1 237.75 47.875)" font-family="'SourceHanSans-Normal-90ms-RKSJ-H'" font-size="8">出力イテレーター</text>
<g>
	<g>
		<line fill="none" stroke="#000000" stroke-width="0.5" x1="228.25" y1="45.875" x2="234.25" y2="45.875"/>
		<path d="M233.867,45.875l-0.821-1.352l0.046-0.03l2.203,0.875c0.768,0.169,1.535,0.338,2.303,0.507
			c-0.768,0.169-1.535,0.338-2.303,0.507l-2.203,0.875l-0.046-0.023L233.867,45.875z"/>
	</g>
</g>
</svg>
