<?xml version="1.0" encoding="utf-8"?>
<!-- Generator: Adobe Illustrator 12.0.1, SVG Export Plug-In . SVG Version: 6.00 Build 51448)  -->
<!DOCTYPE svg PUBLIC "-//W3C//DTD SVG 1.0//EN" "http://www.w3.org/TR/2001/REC-SVG-20010904/DTD/svg10.dtd" [
	<!ENTITY ns_svg "http://www.w3.org/2000/svg">
	<!ENTITY ns_xlink "http://www.w3.org/1999/xlink">
]>
<svg  version="1.0" id="レイヤー_1" xmlns="&ns_svg;" xmlns:xlink="&ns_xlink;" width="202.668" height="57.383"
	 viewBox="0 0 202.668 57.383" overflow="visible" enable-background="new 0 0 202.668 57.383" xml:space="preserve">
<g>
	<rect x="0.5" y="13.625" fill="#FFFFFF" stroke="#000000" width="10" height="10"/>
	<line fill="none" stroke="#000000" x1="10.5" y1="18.625" x2="15.5" y2="18.625"/>
	<rect x="15.5" y="13.625" fill="#FFFFFF" stroke="#000000" width="10" height="10"/>
	<line fill="none" stroke="#000000" x1="25.5" y1="18.625" x2="30.5" y2="18.625"/>
	<rect x="30.5" y="13.625" fill="#FFFFFF" stroke="#000000" width="10" height="10"/>
	<line fill="none" stroke="#000000" x1="40.5" y1="18.625" x2="45.5" y2="18.625"/>
	<rect x="45.5" y="13.625" fill="#FFFFFF" stroke="#000000" width="10" height="10"/>
	<line fill="none" stroke="#000000" x1="55.5" y1="18.625" x2="60.5" y2="18.625"/>
	<rect x="60.5" y="13.625" fill="#FFFFFF" stroke="#000000" width="10" height="10"/>
	<line fill="none" stroke="#000000" x1="70.5" y1="18.625" x2="75.5" y2="18.625"/>
	<rect x="75.5" y="13.625" fill="#FFFFFF" stroke="#000000" width="10" height="10"/>
	<line fill="none" stroke="#000000" x1="85.5" y1="18.625" x2="90.5" y2="18.625"/>
	<rect x="90.5" y="13.625" fill="#FFFFFF" stroke="#000000" width="10" height="10"/>
	<line fill="none" stroke="#000000" x1="100.5" y1="18.625" x2="105.5" y2="18.625"/>
	<rect x="105.5" y="13.625" fill="#FFFFFF" stroke="#000000" width="10" height="10"/>
	<line fill="none" stroke="#000000" x1="115.5" y1="18.625" x2="120.5" y2="18.625"/>
	<rect x="120.5" y="13.625" fill="#FFFFFF" stroke="#000000" width="10" height="10"/>
	<line fill="none" stroke="#000000" x1="130.5" y1="18.625" x2="135.5" y2="18.625"/>
	<rect x="135.5" y="13.625" fill="#FFFFFF" stroke="#000000" width="10" height="10"/>
	<line fill="none" stroke="#000000" x1="145.5" y1="18.625" x2="150.5" y2="18.625"/>
	<rect x="150.5" y="13.625" fill="#FFFFFF" stroke="#000000" width="10" height="10"/>
	<line fill="none" stroke="#000000" x1="160.5" y1="18.625" x2="165.5" y2="18.625"/>
	<rect x="165.5" y="13.625" fill="#FFFFFF" stroke="#000000" width="10" height="10"/>
	<g>
		<g>
			<line fill="none" stroke="#000000" x1="3.875" y1="9.625" x2="52.5" y2="9.625"/>
			<polygon points="56.03,9.625 51.055,11.657 52.236,9.625 51.055,7.592 			"/>
			<polygon points="0.345,9.625 5.32,7.592 4.139,9.625 5.32,11.657 			"/>
		</g>
	</g>
	<text transform="matrix(1 0 0 1 30.2754 7.04)" font-family="'SourceHanSans-Normal-90ms-RKSJ-H'" font-size="8">最初の4バイト</text>
	<g>
		<g>
			<line fill="none" stroke="#000000" stroke-width="0.5" x1="28" y1="0" x2="28" y2="6"/>
			<polygon points="26.75,5.636 27.996,7.794 29.243,5.636 			"/>
		</g>
	</g>
	<g>
		<g>
			<line fill="none" stroke="#000000" x1="63.875" y1="27.625" x2="112.5" y2="27.625"/>
			<polygon points="116.03,27.625 111.055,29.657 112.236,27.625 111.055,25.592 			"/>
			<polygon points="60.345,27.625 65.32,25.592 64.139,27.625 65.32,29.657 			"/>
		</g>
	</g>
	<text transform="matrix(1 0 0 1 90.2754 35.9995)" font-family="'SourceHanSans-Normal-90ms-RKSJ-H'" font-size="8">次の4バイト</text>
	<g>
		<g>
			<line fill="none" stroke="#000000" stroke-width="0.5" x1="88" y1="37.083" x2="88" y2="31.083"/>
			<polygon points="89.25,31.448 88.004,29.29 86.757,31.448 			"/>
		</g>
	</g>
	<g>
		<g>
			<line fill="none" stroke="#000000" x1="123.875" y1="40.625" x2="172.5" y2="40.625"/>
			<polygon points="176.03,40.625 171.055,42.657 172.236,40.625 171.055,38.592 			"/>
			<polygon points="120.345,40.625 125.319,38.592 124.139,40.625 125.319,42.657 			"/>
		</g>
	</g>
	<text transform="matrix(1 0 0 1 150.2754 48.9995)" font-family="'SourceHanSans-Normal-90ms-RKSJ-H'" font-size="8">最後の4バイト</text>
	<g>
		<g>
			<line fill="none" stroke="#000000" stroke-width="0.5" x1="148" y1="50.083" x2="148" y2="44.083"/>
			<polygon points="149.25,44.448 148.004,42.29 146.758,44.448 			"/>
		</g>
	</g>
</g>
</svg>
