<?xml version="1.0" encoding="utf-8"?>
<!-- Generator: Adobe Illustrator 12.0.1, SVG Export Plug-In . SVG Version: 6.00 Build 51448)  -->
<!DOCTYPE svg PUBLIC "-//W3C//DTD SVG 1.0//EN" "http://www.w3.org/TR/2001/REC-SVG-20010904/DTD/svg10.dtd" [
	<!ENTITY ns_svg "http://www.w3.org/2000/svg">
	<!ENTITY ns_xlink "http://www.w3.org/1999/xlink">
]>
<svg  version="1.0" id="レイヤー_1" xmlns="&ns_svg;" xmlns:xlink="&ns_xlink;" width="274.5" height="31.592"
	 viewBox="0 0 274.5 31.592" overflow="visible" enable-background="new 0 0 274.5 31.592" xml:space="preserve">
<text transform="matrix(1 0 0 1 13.25 9.207)"><tspan x="0" y="0" font-family="'SourceHanSans-Normal-90ms-RKSJ-H'" font-size="8">ソース </tspan><tspan x="-4" y="14" font-family="'SourceHanSans-Normal-90ms-RKSJ-H'" font-size="8">ファイル</tspan></text>
<rect x="120.25" y="0.25" fill="none" stroke="#000000" stroke-width="0.5" width="50" height="27"/>
<text transform="matrix(1 0 0 1 121.25 9.207)"><tspan x="0" y="0" font-family="'SourceHanSans-Normal-90ms-RKSJ-H'" font-size="8">オブジェクト </tspan><tspan x="8" y="14" font-family="'SourceHanSans-Normal-90ms-RKSJ-H'" font-size="8">ファイル</tspan></text>
<rect x="0.25" y="0.25" fill="none" stroke="#000000" stroke-width="0.5" width="50" height="27"/>
<rect x="224.25" y="0.25" fill="none" stroke="#000000" stroke-width="0.5" width="50" height="27"/>
<text transform="matrix(1 0 0 1 229.25 16.207)" font-family="'SourceHanSans-Normal-90ms-RKSJ-H'" font-size="8">プログラム</text>
<text transform="matrix(1 0 0 1 178.2266 16.207)" font-family="'SourceHanSans-Normal-90ms-RKSJ-H'" font-size="8">(リンカー)</text>
<text transform="matrix(1 0 0 1 58.5 16.207)" font-family="'SourceHanSans-Normal-90ms-RKSJ-H'" font-size="8">(コンパイラー)</text>
<g>
	<g>
		<line fill="none" stroke="#000000" stroke-width="0.5" x1="50.25" y1="13.75" x2="56.25" y2="13.75"/>
		<path d="M55.867,13.75l-0.821-1.351l0.046-0.031l2.203,0.875c0.768,0.169,1.535,0.338,2.303,0.507
			c-0.768,0.169-1.535,0.338-2.303,0.507l-2.203,0.875l-0.046-0.023L55.867,13.75z"/>
	</g>
</g>
<g>
	<g>
		<line fill="none" stroke="#000000" stroke-width="0.5" x1="110.959" y1="13.75" x2="116.959" y2="13.75"/>
		<path d="M116.576,13.75l-0.821-1.351l0.046-0.031l2.203,0.875c0.768,0.169,1.535,0.338,2.303,0.507
			c-0.768,0.169-1.535,0.338-2.303,0.507l-2.203,0.875l-0.046-0.023L116.576,13.75z"/>
	</g>
</g>
<g>
	<g>
		<line fill="none" stroke="#000000" stroke-width="0.5" x1="170.25" y1="13.75" x2="176.25" y2="13.75"/>
		<path d="M175.867,13.75l-0.821-1.351l0.046-0.031l2.203,0.875c0.768,0.169,1.535,0.338,2.303,0.507
			c-0.768,0.169-1.535,0.338-2.303,0.507l-2.203,0.875l-0.046-0.023L175.867,13.75z"/>
	</g>
</g>
<g>
	<g>
		<line fill="none" stroke="#000000" stroke-width="0.5" x1="214.625" y1="13.75" x2="220.625" y2="13.75"/>
		<path d="M220.242,13.75l-0.821-1.351l0.046-0.031l2.203,0.875c0.768,0.169,1.535,0.338,2.303,0.507
			c-0.768,0.169-1.535,0.338-2.303,0.507l-2.203,0.875l-0.046-0.023L220.242,13.75z"/>
	</g>
</g>
</svg>
