<?xml version="1.0" encoding="utf-8"?>
<!-- Generator: Adobe Illustrator 12.0.1, SVG Export Plug-In . SVG Version: 6.00 Build 51448)  -->
<!DOCTYPE svg PUBLIC "-//W3C//DTD SVG 1.0//EN" "http://www.w3.org/TR/2001/REC-SVG-20010904/DTD/svg10.dtd" [
	<!ENTITY ns_svg "http://www.w3.org/2000/svg">
	<!ENTITY ns_xlink "http://www.w3.org/1999/xlink">
]>
<svg  version="1.0" id="レイヤー_1" xmlns="&ns_svg;" xmlns:xlink="&ns_xlink;" width="113.091" height="47.424"
	 viewBox="0 0 113.091 47.424" overflow="visible" enable-background="new 0 0 113.091 47.424" xml:space="preserve">
<g>
	<text transform="matrix(1 0 0 1 35.1958 7.04)" font-family="'SourceHanSans-Normal-90ms-RKSJ-H'" font-size="8">expression</text>
	<text transform="matrix(1 0 0 1 43.1719 39.0405)" font-family="'SourceHanSans-Normal-90ms-RKSJ-H'" font-size="8">xvalue</text>
	<text transform="matrix(1 0 0 1 85.1401 39.0405)" font-family="'SourceHanSans-Normal-90ms-RKSJ-H'" font-size="8">prvalue</text>
	<text transform="matrix(1 0 0 1 18.772 23.0405)" font-family="'SourceHanSans-Normal-90ms-RKSJ-H'" font-size="8">glvalue</text>
	<text transform="matrix(1 0 0 1 66.6001 23.0405)" font-family="'SourceHanSans-Normal-90ms-RKSJ-H'" font-size="8">rvalue</text>
	<line fill="none" stroke="#000000" stroke-width="0.5" x1="32.116" y1="16.166" x2="51.116" y2="9.166"/>
	<text transform="matrix(1 0 0 1 0 39.0405)" font-family="'SourceHanSans-Normal-90ms-RKSJ-H'" font-size="8">lvalue</text>
	<line fill="none" stroke="#000000" stroke-width="0.5" x1="11.116" y1="32.166" x2="30.116" y2="25.166"/>
	<line fill="none" stroke="#000000" stroke-width="0.5" x1="78.116" y1="16.166" x2="59.116" y2="9.166"/>
	<line fill="none" stroke="#000000" stroke-width="0.5" x1="57.116" y1="32.166" x2="76.116" y2="25.166"/>
	<line fill="none" stroke="#000000" stroke-width="0.5" x1="99.116" y1="32.166" x2="80.116" y2="25.166"/>
	<line fill="none" stroke="#000000" stroke-width="0.5" x1="53.116" y1="32.166" x2="34.116" y2="25.166"/>
</g>
</svg>
